<?xml version="1.0" encoding="utf-8"?>
<!-- Generator: Adobe Illustrator 21.0.0, SVG Export Plug-In . SVG Version: 6.00 Build 0)  -->
<svg version="1.1" xmlns="http://www.w3.org/2000/svg" xmlns:xlink="http://www.w3.org/1999/xlink" x="0px" y="0px"
	 viewBox="0 0 308 296" style="enable-background:new 0 0 308 296;" xml:space="preserve">
<style type="text/css">
	.st0{display:none;}
	.st1{display:inline;}
	.st2{fill:#161111;}
	.st3{fill:#282828;}
	.st4{fill:#3A3A3A;}
	.st5{fill:#F9E68A;}
	.st6{fill:none;stroke:#161111;stroke-width:2;stroke-miterlimit:10;}
	.st7{fill:none;stroke:#161111;stroke-width:3;stroke-miterlimit:10;}
	.st8{fill:none;stroke:#161111;stroke-width:4;stroke-miterlimit:10;}
	.st9{fill:none;stroke:#161111;stroke-miterlimit:10;}
</style>
<g id="Layer_1" class="st0">
	<g class="st1">
		<rect x="-18" y="-95" class="st2" width="1551" height="940"/>
	</g>
</g>
<g id="Layer_4">
</g>
<g id="Layer_3">
	<g>
		<g>
			<rect x="270.9" y="67.1" class="st3" width="34.6" height="161.3"/>
			<path class="st4" d="M280.5,107v81.4c0,6.7,6.3,12.1,14,12.1h0c4.5,0,8.4,1.8,11,4.6c1.9,2.1,3,4.7,3,7.5v65.5
				c0,9.9-9.2,17.8-20.6,17.8l-224.3,0.2c-12.2,0-22-8.5-22-19.1V213c0-9.9-9.2-17.9-20.6-17.9h-6c-8.1,0-14.6-5.7-14.6-12.7l0-67.8
				c0-7,6.6-12.7,14.6-12.7h12c8.1,0,14.6-5.7,14.6-12.7V18.8c0-10.5,9.8-19.1,22-19.1l224.3-0.2c11.4,0,20.6,8,20.6,17.8v65.5
				c0,2.8-1.1,5.4-3,7.5c-2.6,2.8-6.5,4.6-11,4.6h0C286.7,94.9,280.5,100.3,280.5,107z"/>
			<path class="st5" d="M291,112.4h-0.9c-1.6,0-2.9-1.3-2.9-2.9v0c0-1.6,1.3-2.9,2.9-2.9h0.9c1.6,0,2.9,1.3,2.9,2.9v0
				C293.9,111.1,292.6,112.4,291,112.4z"/>
			<path class="st5" d="M291,123.2h-0.9c-1.6,0-2.9-1.3-2.9-2.9l0,0c0-1.6,1.3-2.9,2.9-2.9h0.9c1.6,0,2.9,1.3,2.9,2.9l0,0
				C293.9,121.9,292.6,123.2,291,123.2z"/>
			<path class="st5" d="M291,134h-0.9c-1.6,0-2.9-1.3-2.9-2.9v0c0-1.6,1.3-2.9,2.9-2.9h0.9c1.6,0,2.9,1.3,2.9,2.9v0
				C293.9,132.7,292.6,134,291,134z"/>
			<path class="st5" d="M291,144.8h-0.9c-1.6,0-2.9-1.3-2.9-2.9v0c0-1.6,1.3-2.9,2.9-2.9h0.9c1.6,0,2.9,1.3,2.9,2.9v0
				C293.9,143.5,292.6,144.8,291,144.8z"/>
			<path class="st5" d="M291,155.6h-0.9c-1.6,0-2.9-1.3-2.9-2.9l0,0c0-1.6,1.3-2.9,2.9-2.9h0.9c1.6,0,2.9,1.3,2.9,2.9l0,0
				C293.9,154.3,292.6,155.6,291,155.6z"/>
			<path class="st5" d="M291,166.4h-0.9c-1.6,0-2.9-1.3-2.9-2.9l0,0c0-1.6,1.3-2.9,2.9-2.9h0.9c1.6,0,2.9,1.3,2.9,2.9l0,0
				C293.9,165.1,292.6,166.4,291,166.4z"/>
			<path class="st5" d="M291,177.3h-0.9c-1.6,0-2.9-1.3-2.9-2.9l0,0c0-1.6,1.3-2.9,2.9-2.9h0.9c1.6,0,2.9,1.3,2.9,2.9l0,0
				C293.9,175.9,292.6,177.3,291,177.3z"/>
			<path class="st5" d="M291,188.1h-0.9c-1.6,0-2.9-1.3-2.9-2.9l0,0c0-1.6,1.3-2.9,2.9-2.9h0.9c1.6,0,2.9,1.3,2.9,2.9l0,0
				C293.9,186.8,292.6,188.1,291,188.1z"/>
		</g>
		<line class="st6" x1="11.3" y1="124.6" x2="27.1" y2="124.6"/>
		<line class="st7" x1="11.3" y1="126.7" x2="27.1" y2="126.7"/>
		<line class="st8" x1="11.3" y1="137.1" x2="27.1" y2="137.1"/>
		<line class="st8" x1="11.3" y1="157.5" x2="27.1" y2="157.5"/>
		<line class="st8" x1="11.3" y1="172.4" x2="27.1" y2="172.4"/>
		<line class="st6" x1="11.3" y1="129.6" x2="27.1" y2="129.6"/>
		<line class="st9" x1="11.3" y1="134.4" x2="27.1" y2="134.4"/>
		<line class="st9" x1="11.3" y1="140.2" x2="27.1" y2="140.2"/>
		<line class="st9" x1="11.3" y1="142.3" x2="27.1" y2="142.3"/>
		<line class="st9" x1="11.3" y1="153.9" x2="27.1" y2="153.9"/>
		<line class="st9" x1="11.3" y1="148.1" x2="27.1" y2="148.1"/>
		<line class="st9" x1="11.3" y1="149.8" x2="27.1" y2="149.8"/>
		<line class="st9" x1="11.3" y1="169.7" x2="27.1" y2="169.7"/>
		<line class="st6" x1="11.3" y1="144.6" x2="27.1" y2="144.6"/>
		<line class="st6" x1="11.3" y1="146.2" x2="27.1" y2="146.2"/>
		<line class="st6" x1="11.3" y1="162" x2="27.1" y2="162"/>
		<line class="st6" x1="11.3" y1="166.6" x2="27.1" y2="166.6"/>
		<line class="st6" x1="11.3" y1="151.7" x2="27.1" y2="151.7"/>
		<line class="st6" x1="11.3" y1="177.8" x2="27.1" y2="177.8"/>
	</g>
</g>
</svg>
